<svg width="18" height="18" viewBox="0 0 18 18" fill="none" xmlns="http://www.w3.org/2000/svg">
<path d="M8.25 16.2975C8.7141 16.5654 9.2859 16.5654 9.75 16.2975L15 13.2975C15.4636 13.0298 15.7495 12.5353 15.75 12V5.99999C15.7495 5.46464 15.4636 4.97016 15 4.70249L9.75 1.70249C9.2859 1.43454 8.7141 1.43454 8.25 1.70249L3 4.70249C2.53637 4.97016 2.25055 5.46464 2.25 5.99999V12C2.25055 12.5353 2.53637 13.0298 3 13.2975L8.25 16.2975M9 16.5V8.99999" stroke="#1a3a6b" stroke-width="2" stroke-linecap="round" stroke-linejoin="round"/>
<path d="M2.46753 5.25001L9.00003 9.00001L15.5325 5.25001M5.62503 3.20251L12.375 7.06501" stroke="#1a3a6b" stroke-width="2" stroke-linecap="round" stroke-linejoin="round"/>
</svg>
