<svg width="18" height="18" viewBox="0 0 18 18" fill="none" xmlns="http://www.w3.org/2000/svg">
<g clip-path="url(#clip0_102_225)">
<path d="M15 9.75C15 13.5 12.375 15.375 9.255 16.4625C9.09162 16.5179 8.91415 16.5152 8.7525 16.455C5.625 15.375 3 13.5 3 9.75V4.5C3 4.08607 3.33606 3.75 3.75 3.75C5.25 3.75 7.125 2.85 8.43 1.71C8.75826 1.42955 9.24174 1.42955 9.57 1.71C10.8825 2.8575 12.75 3.75 14.25 3.75C14.6639 3.75 15 4.08607 15 4.5V9.75" stroke="#70284e" stroke-width="2" stroke-linecap="round" stroke-linejoin="round"/>
<path d="M6.75 9L8.25 10.5L11.25 7.5" stroke="#70284e" stroke-width="2" stroke-linecap="round" stroke-linejoin="round"/>
</g>
<defs>
<clipPath id="clip0_102_225">
<rect width="18" height="18" fill="white"/>
</clipPath>
</defs>
</svg>
