<svg width="11" height="11" viewBox="0 0 11 11" fill="none" xmlns="http://www.w3.org/2000/svg">
<g clip-path="url(#clip0_184_797)">
<path d="M6.33975 7.59367C6.53473 7.68321 6.76574 7.62551 6.89571 7.45479L7.05841 7.24167C7.23153 7.01085 7.50322 6.875 7.79175 6.875H9.16675C9.67267 6.875 10.0834 7.28575 10.0834 7.79167V9.16667C10.0834 9.67259 9.67267 10.0833 9.16675 10.0833C4.61345 10.0833 0.916748 6.38663 0.916748 1.83333C0.916748 1.32741 1.32749 0.916668 1.83341 0.916668H3.20841C3.71434 0.916668 4.12508 1.32741 4.12508 1.83333V3.20833C4.12508 3.49686 3.98924 3.76855 3.75841 3.94167L3.54391 4.10254C3.37042 4.23501 3.31443 4.47146 3.41008 4.66767C4.03648 5.93994 5.06669 6.96887 6.33975 7.59367" stroke="#ffffff" stroke-width="2" stroke-linecap="round" stroke-linejoin="round"/>
</g>
<defs>
<clipPath id="clip0_184_797">
<rect width="11" height="11" fill="white"/>
</clipPath>
</defs>
</svg>
