<svg width="18" height="18" viewBox="0 0 18 18" fill="none" xmlns="http://www.w3.org/2000/svg">
<g clip-path="url(#clip0_102_201)">
<path d="M7.5 9H10.5M7.5 6H10.5M10.5 15.75V13.5C10.5 12.6721 9.82787 12 9 12C8.17213 12 7.5 12.6721 7.5 13.5V15.75" stroke="#70284e" stroke-width="2" stroke-linecap="round" stroke-linejoin="round"/>
<path d="M4.5 7.5H3C2.17213 7.5 1.5 8.17213 1.5 9V14.25C1.5 15.0779 2.17213 15.75 3 15.75H15C15.8279 15.75 16.5 15.0779 16.5 14.25V6.75C16.5 5.92213 15.8279 5.25 15 5.25H13.5" stroke="#70284e" stroke-width="2" stroke-linecap="round" stroke-linejoin="round"/>
<path d="M4.5 15.75V3.75C4.5 2.92213 5.17213 2.25 6 2.25H12C12.8279 2.25 13.5 2.92213 13.5 3.75V15.75" stroke="#70284e" stroke-width="2" stroke-linecap="round" stroke-linejoin="round"/>
</g>
<defs>
<clipPath id="clip0_102_201">
<rect width="18" height="18" fill="white"/>
</clipPath>
</defs>
</svg>
