<svg width="18" height="18" viewBox="0 0 18 18" fill="none" xmlns="http://www.w3.org/2000/svg">
<path d="M2.25 10.5H4.5C5.32787 10.5 6 11.1721 6 12V14.25C6 15.0779 5.32787 15.75 4.5 15.75H3.75C2.92213 15.75 2.25 15.0779 2.25 14.25V9C2.25 5.27457 5.27457 2.25 9 2.25C12.7254 2.25 15.75 5.27457 15.75 9V14.25C15.75 15.0779 15.0779 15.75 14.25 15.75H13.5C12.6721 15.75 12 15.0779 12 14.25V12C12 11.1721 12.6721 10.5 13.5 10.5H15.75" stroke="#70284e" stroke-width="2" stroke-linecap="round" stroke-linejoin="round"/>
</svg>
