<svg width="18" height="18" viewBox="0 0 18 18" fill="none" xmlns="http://www.w3.org/2000/svg">
<g clip-path="url(#clip0_102_528)">
<path d="M7.25339 3.10199C7.33902 2.20112 8.09559 1.51306 9.00051 1.51306C9.90544 1.51306 10.662 2.20112 10.7476 3.10199C10.798 3.67195 11.1231 4.18155 11.6187 4.4675C12.1143 4.75345 12.7182 4.77985 13.2369 4.53824C14.0591 4.16496 15.0303 4.47647 15.482 5.25832C15.9337 6.04017 15.7185 7.03718 14.9844 7.56299C14.5162 7.89153 14.2374 8.42763 14.2374 8.99962C14.2374 9.5716 14.5162 10.1077 14.9844 10.4362C15.7185 10.9621 15.9337 11.9591 15.482 12.7409C15.0303 13.5228 14.0591 13.8343 13.2369 13.461C12.7182 13.2194 12.1143 13.2458 11.6187 13.5317C11.1231 13.8177 10.798 14.3273 10.7476 14.8972C10.662 15.7981 9.90544 16.4862 9.00051 16.4862C8.09559 16.4862 7.33902 15.7981 7.25339 14.8972C7.20307 14.3271 6.87788 13.8173 6.38206 13.5313C5.88625 13.2453 5.28213 13.2191 4.76339 13.461C3.9412 13.8343 2.96995 13.5228 2.51825 12.7409C2.06655 11.9591 2.28183 10.9621 3.01589 10.4362C3.48411 10.1077 3.76285 9.5716 3.76285 8.99962C3.76285 8.42763 3.48411 7.89153 3.01589 7.56299C2.2829 7.03694 2.06819 6.04083 2.51938 5.25953C2.97057 4.47822 3.94065 4.16631 4.76264 4.53824C5.28131 4.77985 5.88519 4.75345 6.38079 4.4675C6.87639 4.18155 7.20148 3.67195 7.25189 3.10199" stroke="#1a3a6b" stroke-width="2" stroke-linecap="round" stroke-linejoin="round"/>
<path d="M6.75 9C6.75 10.2418 7.75819 11.25 9 11.25C10.2418 11.25 11.25 10.2418 11.25 9C11.25 7.75819 10.2418 6.75 9 6.75C7.75819 6.75 6.75 7.75819 6.75 9V9" stroke="#1a3a6b" stroke-width="2" stroke-linecap="round" stroke-linejoin="round"/>
</g>
<defs>
<clipPath id="clip0_102_528">
<rect width="18" height="18" fill="white"/>
</clipPath>
</defs>
</svg>
