<svg width="18" height="18" viewBox="0 0 18 18" fill="none" xmlns="http://www.w3.org/2000/svg">
<g clip-path="url(#clip0_102_506)">
<path d="M2.99988 10.5C2.71019 10.501 2.44584 10.3351 2.32079 10.0738C2.19575 9.81245 2.23237 9.50249 2.41488 9.27752L9.83988 1.62752C9.95459 1.49511 10.1457 1.45977 10.3002 1.5424C10.4547 1.62502 10.5313 1.8036 10.4849 1.97252L9.04488 6.48752C8.95869 6.7182 8.99123 6.97649 9.13195 7.17859C9.27266 7.38068 9.50362 7.50082 9.74988 7.50002H14.9999C15.2896 7.49903 15.5539 7.66496 15.679 7.92627C15.804 8.18759 15.7674 8.49755 15.5849 8.72252L8.15988 16.3725C8.04517 16.5049 7.85406 16.5403 7.69958 16.4576C7.5451 16.375 7.46842 16.1964 7.51488 16.0275L8.95488 11.5125C9.04107 11.2818 9.00853 11.0235 8.86781 10.8214C8.7271 10.6194 8.49614 10.4992 8.24988 10.5H2.99988" stroke="#70284e" stroke-width="2" stroke-linecap="round" stroke-linejoin="round"/>
</g>
<defs>
<clipPath id="clip0_102_506">
<rect width="18" height="18" fill="white"/>
</clipPath>
</defs>
</svg>
